<?xml version="1.0" encoding="UTF-8"?>
<svg width="1280" height="640" viewBox="0 0 30240 15120" xmlns="http://www.w3.org/2000/svg" xmlns:xlink="http://www.w3.org/1999/xlink">
 <defs>
  <path id="a" d="m0-9 1.7355 5.3961 5.301-2.0075-3.1368 4.7213 4.8746 2.8928-5.647 0.49127 0.77763 5.6148-3.905-4.1087-3.905 4.1087 0.77763-5.6148-5.647-0.49127 4.8746-2.8928-3.1368-4.7213 5.301 2.0075 1.7355-5.3961z"/>
  <path id="c" d="m0-9 2.3511 5.7639 6.2084 0.45492-4.7553 4.0172 1.4858 6.0451-5.2901-3.2812-5.2901 3.2812 1.4858-6.0451-4.7553-4.0172 6.2084-0.45492 2.3511-5.7639z"/>
 </defs>
 <path d="m0 0h30240v15120h-30240v-15120z" fill="#00008b"/>
 <use transform="matrix(252,0,0,252,7560,11340)" fill="#fff" xlink:href="#a"/>
 <use transform="matrix(120,0,0,120,22680,12600)" fill="#fff" xlink:href="#a"/>
 <use transform="matrix(120,0,0,120,18900,6615)" fill="#fff" xlink:href="#a"/>
 <use transform="matrix(120,0,0,120,22680,2520)" fill="#fff" xlink:href="#a"/>
 <use transform="matrix(120,0,0,120,26040,5607)" fill="#fff" xlink:href="#a"/>
 <use transform="matrix(70,0,0,70,24192,8190)" fill="#fff" xlink:href="#c"/>
 <path d="m6300 0h2520v2520h6300v2520h-6300v2520h-2520v-2520h-6300v-2520h6300v-2520z" fill="#fff"/>
 <path id="b" d="m0 0h1690.5l13430 6714.8v845.23h-1690.5l-13430-6714.8v-845.23z" fill="#fff"/>
 <use transform="matrix(-1,0,0,1,15120,0)" fill="#fff" xlink:href="#b"/>
 <path d="m6804 0h1512v3024h6804v1512h-6804v3024h-1512v-3024h-6804v-1512h6804v-3024z" fill="#f00"/>
 <path id="d" d="m0 0 5040 2520h-1127l-3913-1956.5v-563.49zm15120 0h-1127l-5040 2520h1127l5040-2520z" fill="#f00"/>
 <use transform="matrix(-1,0,0,-1,15120,7560)" fill="#f00" xlink:href="#d"/>
</svg>
