<?xml version="1.0" encoding="iso-8859-1"?>
<!-- Generator: Adobe Illustrator 16.0.0, SVG Export Plug-In . SVG Version: 6.00 Build 0)  -->
<!DOCTYPE svg PUBLIC "-//W3C//DTD SVG 1.1//EN" "http://www.w3.org/Graphics/SVG/1.1/DTD/svg11.dtd">
<svg version="1.1" id="Georgia" xmlns="http://www.w3.org/2000/svg" xmlns:xlink="http://www.w3.org/1999/xlink" x="0px" y="0px"
	 width="4000px" height="2498px" viewBox="0 0 4000 2498" style="enable-background:new 0 0 4000 2498;" xml:space="preserve">
<rect x="3" style="fill:#FFFFFC;" width="3997" height="2498"/>
<rect x="1727.417" style="fill:#E81D2E;" width="545.891" height="2498"/>
<rect x="0" y="1024.407" style="fill:#E81D2E;" width="4000" height="467.906"/>
<g>
	<g>
		<path style="fill:#E71D2F;" d="M912.02,548.55c-1.01-0.01-2.01-0.01-3.02-0.01V545h3v0.3C912,546.38,912,547.47,912.02,548.55z"/>
		<path style="fill:#E71D2F;" d="M912.02,431.53c-0.01,0.92-0.02,1.85-0.02,2.78V435h-3v-3.46
			C910.01,431.54,911.01,431.54,912.02,431.53z"/>
	</g>
	<g>
		<path style="fill:#E71D2F;" d="M798,545v3.54c-1.01,0-2.01,0-3.02,0.01c0.02-1.18,0.02-2.37,0.02-3.55H798z"/>
		<path style="fill:#E71D2F;" d="M912.02,548.55c-1.01-0.01-2.01-0.01-3.02-0.01V545h3v0.3C912,546.38,912,547.47,912.02,548.55z"/>
	</g>
	<g>
		<path style="fill:#E71D2F;" d="M798,432v3h-3v-0.55c0-0.89-0.01-1.8-0.02-2.69c0.69,0.01,1.37,0.18,2.05,0.22
			c0.12,0.01,0.24,0.02,0.36,0.02H798z"/>
		<path style="fill:#E71D2F;" d="M798,545v3.54c-1.01,0-2.01,0-3.02,0.01c0.02-1.18,0.02-2.37,0.02-3.55H798z"/>
	</g>
	<g>
		<path style="fill:#E71D2F;" d="M1076.78,490.16c0.16-5.85,2.38-79.38,11.92-82.6c-2.71,0.7-89.68,23.45-176.68,23.97
			c-0.01,0.92-0.02,1.85-0.02,2.78V435h-3v-3.46c1.01,0,2.01,0,3.02-0.01c0.58-87.42,23.25-173.76,23.96-176.46
			c-3.18,9.42-74.87,11.7-82.35,11.92c-5.86-0.16-79.38-2.38-82.61-11.92c0.71,2.7,23.38,89.04,23.96,176.46
			c-87-0.52-173.97-23.26-176.68-23.98c9.42,3.19,11.7,74.87,11.92,82.36c-0.16,5.85-2.38,79.38-11.92,82.6
			c2.71-0.71,89.68-23.44,176.68-23.96c0.02-1.18,0.02-2.37,0.02-3.55h3v3.54c-1.01,0-2.01,0-3.02,0.01
			c-0.59,87.78-23.25,173.71-23.96,176.41c3.18-9.42,74.87-11.7,82.35-11.92c5.86,0.17,79.38,2.38,82.61,11.92
			c-0.71-2.7-23.37-88.63-23.96-176.41c-1.01-0.01-2.01-0.01-3.02-0.01V545h3v0.3c0,1.08,0,2.17,0.02,3.25
			c87,0.52,173.97,23.25,176.68,23.97C1079.28,569.33,1077,497.65,1076.78,490.16z M795,435v-0.55c0-0.89-0.01-1.8-0.02-2.69
			c0.69,0.01,1.37,0.18,2.05,0.22c0.12,0.01,0.24,0.02,0.36,0.02H798v3H795z"/>
		<path style="fill:#E71D2F;" d="M797.39,432H798v3h-3v-0.55c0-0.89-0.01-1.8-0.02-2.69c0.69,0.01,1.37,0.18,2.05,0.22
			C797.15,431.99,797.27,432,797.39,432z"/>
		<path style="fill:#E71D2F;" d="M912.02,431.53c-0.01,0.92-0.02,1.85-0.02,2.78V435h-3v-3.46
			C910.01,431.54,911.01,431.54,912.02,431.53z"/>
	</g>
</g>
<g>
	<g>
		<path style="fill:#E71D2F;" d="M3216.02,548.55c-1.01-0.01-2.01-0.01-3.02-0.01V545h3v0.3C3216,546.38,3216,547.47,3216.02,548.55
			z"/>
		<path style="fill:#E71D2F;" d="M3216.02,431.53c-0.01,0.92-0.02,1.85-0.02,2.78V435h-3v-3.46
			C3214.01,431.54,3215.01,431.54,3216.02,431.53z"/>
	</g>
	<g>
		<path style="fill:#E71D2F;" d="M3102,545v3.54c-1.01,0-2.01,0-3.02,0.01c0.02-1.18,0.02-2.37,0.02-3.55H3102z"/>
		<path style="fill:#E71D2F;" d="M3216.02,548.55c-1.01-0.01-2.01-0.01-3.02-0.01V545h3v0.3C3216,546.38,3216,547.47,3216.02,548.55
			z"/>
	</g>
	<g>
		<path style="fill:#E71D2F;" d="M3102,432v3h-3v-0.55c0-0.89-0.01-1.8-0.02-2.69c0.689,0.01,1.369,0.18,2.049,0.22
			c0.121,0.01,0.24,0.02,0.361,0.02H3102z"/>
		<path style="fill:#E71D2F;" d="M3102,545v3.54c-1.01,0-2.01,0-3.02,0.01c0.02-1.18,0.02-2.37,0.02-3.55H3102z"/>
	</g>
	<g>
		<path style="fill:#E71D2F;" d="M3380.779,490.16c0.16-5.85,2.381-79.38,11.921-82.6c-2.71,0.7-89.681,23.45-176.681,23.97
			c-0.01,0.92-0.02,1.85-0.02,2.78V435h-3v-3.46c1.01,0,2.01,0,3.02-0.01c0.58-87.42,23.25-173.76,23.961-176.46
			c-3.181,9.42-74.871,11.7-82.351,11.92c-5.86-0.16-79.38-2.38-82.61-11.92c0.711,2.7,23.381,89.04,23.961,176.46
			c-87-0.52-173.971-23.26-176.681-23.98c9.421,3.19,11.7,74.87,11.921,82.36c-0.16,5.85-2.381,79.38-11.921,82.6
			c2.71-0.71,89.681-23.44,176.681-23.96c0.02-1.18,0.02-2.37,0.02-3.55h3v3.54c-1.01,0-2.01,0-3.02,0.01
			c-0.59,87.78-23.25,173.71-23.961,176.41c3.181-9.42,74.871-11.7,82.351-11.92c5.86,0.17,79.38,2.38,82.61,11.92
			c-0.711-2.7-23.371-88.63-23.961-176.41c-1.01-0.01-2.01-0.01-3.02-0.01V545h3v0.3c0,1.08,0,2.17,0.02,3.25
			c87,0.52,173.971,23.25,176.681,23.97C3383.279,569.33,3381,497.65,3380.779,490.16z M3099,435v-0.55c0-0.89-0.01-1.8-0.02-2.69
			c0.689,0.01,1.369,0.18,2.049,0.22c0.121,0.01,0.24,0.02,0.361,0.02H3102v3H3099z"/>
		<path style="fill:#E71D2F;" d="M3101.391,432H3102v3h-3v-0.55c0-0.89-0.01-1.8-0.02-2.69c0.689,0.01,1.369,0.18,2.049,0.22
			C3101.15,431.99,3101.27,432,3101.391,432z"/>
		<path style="fill:#E71D2F;" d="M3216.02,431.53c-0.01,0.92-0.02,1.85-0.02,2.78V435h-3v-3.46
			C3214.01,431.54,3215.01,431.54,3216.02,431.53z"/>
	</g>
</g>
<g>
	<g>
		<path style="fill:#E71D2F;" d="M910.02,2048.55c-1.01-0.01-2.01-0.01-3.02-0.01V2045h3v0.3
			C910,2046.38,910,2047.471,910.02,2048.55z"/>
		<path style="fill:#E71D2F;" d="M910.02,1931.529c-0.01,0.921-0.02,1.851-0.02,2.781V1935h-3v-3.46
			C908.01,1931.54,909.01,1931.54,910.02,1931.529z"/>
	</g>
	<g>
		<path style="fill:#E71D2F;" d="M796,2045v3.54c-1.01,0-2.01,0-3.02,0.01c0.02-1.18,0.02-2.37,0.02-3.55H796z"/>
		<path style="fill:#E71D2F;" d="M910.02,2048.55c-1.01-0.01-2.01-0.01-3.02-0.01V2045h3v0.3
			C910,2046.38,910,2047.471,910.02,2048.55z"/>
	</g>
	<g>
		<path style="fill:#E71D2F;" d="M796,1932v3h-3v-0.55c0-0.89-0.01-1.8-0.02-2.69c0.69,0.01,1.37,0.18,2.05,0.221
			c0.12,0.01,0.24,0.02,0.36,0.02H796z"/>
		<path style="fill:#E71D2F;" d="M796,2045v3.54c-1.01,0-2.01,0-3.02,0.01c0.02-1.18,0.02-2.37,0.02-3.55H796z"/>
	</g>
	<g>
		<path style="fill:#E71D2F;" d="M1074.78,1990.16c0.16-5.85,2.38-79.381,11.92-82.6c-2.71,0.699-89.68,23.449-176.68,23.969
			c-0.01,0.921-0.02,1.851-0.02,2.781V1935h-3v-3.46c1.01,0,2.01,0,3.02-0.011c0.58-87.42,23.25-173.76,23.96-176.459
			c-3.18,9.42-74.87,11.699-82.35,11.92c-5.86-0.16-79.38-2.381-82.61-11.92c0.71,2.699,23.38,89.039,23.96,176.459
			c-87-0.52-173.97-23.26-176.68-23.979c9.42,3.19,11.7,74.87,11.92,82.36c-0.16,5.85-2.38,79.38-11.92,82.6
			c2.71-0.71,89.68-23.439,176.68-23.96c0.02-1.18,0.02-2.37,0.02-3.55h3v3.54c-1.01,0-2.01,0-3.02,0.01
			c-0.59,87.78-23.25,173.71-23.96,176.41c3.18-9.42,74.87-11.7,82.35-11.92c5.86,0.17,79.38,2.38,82.61,11.92
			c-0.71-2.7-23.37-88.63-23.96-176.41c-1.01-0.01-2.01-0.01-3.02-0.01V2045h3v0.3c0,1.08,0,2.171,0.02,3.25
			c87,0.521,173.97,23.25,176.68,23.97C1077.28,2069.33,1075,1997.65,1074.78,1990.16z M793,1935v-0.55c0-0.89-0.01-1.8-0.02-2.69
			c0.69,0.01,1.37,0.18,2.05,0.221c0.12,0.01,0.24,0.02,0.36,0.02H796v3H793z"/>
		<path style="fill:#E71D2F;" d="M795.39,1932H796v3h-3v-0.55c0-0.89-0.01-1.8-0.02-2.69c0.69,0.01,1.37,0.18,2.05,0.221
			C795.15,1931.99,795.27,1932,795.39,1932z"/>
		<path style="fill:#E71D2F;" d="M910.02,1931.529c-0.01,0.921-0.02,1.851-0.02,2.781V1935h-3v-3.46
			C908.01,1931.54,909.01,1931.54,910.02,1931.529z"/>
	</g>
</g>
<g>
	<g>
		<path style="fill:#E71D2F;" d="M3214.02,2048.55c-1.01-0.01-2.01-0.01-3.02-0.01V2045h3v0.3
			C3214,2046.38,3214,2047.471,3214.02,2048.55z"/>
		<path style="fill:#E71D2F;" d="M3214.02,1931.529c-0.01,0.921-0.02,1.851-0.02,2.781V1935h-3v-3.46
			C3212.01,1931.54,3213.01,1931.54,3214.02,1931.529z"/>
	</g>
	<g>
		<path style="fill:#E71D2F;" d="M3100,2045v3.54c-1.01,0-2.01,0-3.02,0.01c0.02-1.18,0.02-2.37,0.02-3.55H3100z"/>
		<path style="fill:#E71D2F;" d="M3214.02,2048.55c-1.01-0.01-2.01-0.01-3.02-0.01V2045h3v0.3
			C3214,2046.38,3214,2047.471,3214.02,2048.55z"/>
	</g>
	<g>
		<path style="fill:#E71D2F;" d="M3100,1932v3h-3v-0.55c0-0.89-0.01-1.8-0.02-2.69c0.689,0.01,1.369,0.18,2.049,0.221
			c0.121,0.01,0.24,0.02,0.361,0.02H3100z"/>
		<path style="fill:#E71D2F;" d="M3100,2045v3.54c-1.01,0-2.01,0-3.02,0.01c0.02-1.18,0.02-2.37,0.02-3.55H3100z"/>
	</g>
	<g>
		<path style="fill:#E71D2F;" d="M3378.779,1990.16c0.16-5.85,2.381-79.381,11.921-82.6c-2.71,0.699-89.681,23.449-176.681,23.969
			c-0.01,0.921-0.02,1.851-0.02,2.781V1935h-3v-3.46c1.01,0,2.01,0,3.02-0.011c0.58-87.42,23.25-173.76,23.961-176.459
			c-3.181,9.42-74.871,11.699-82.351,11.92c-5.86-0.16-79.38-2.381-82.61-11.92c0.711,2.699,23.381,89.039,23.961,176.459
			c-87-0.52-173.971-23.26-176.681-23.979c9.421,3.19,11.7,74.87,11.921,82.36c-0.16,5.85-2.381,79.38-11.921,82.6
			c2.71-0.71,89.681-23.439,176.681-23.96c0.02-1.18,0.02-2.37,0.02-3.55h3v3.54c-1.01,0-2.01,0-3.02,0.01
			c-0.59,87.78-23.25,173.71-23.961,176.41c3.181-9.42,74.871-11.7,82.351-11.92c5.86,0.17,79.38,2.38,82.61,11.92
			c-0.711-2.7-23.371-88.63-23.961-176.41c-1.01-0.01-2.01-0.01-3.02-0.01V2045h3v0.3c0,1.08,0,2.171,0.02,3.25
			c87,0.521,173.971,23.25,176.681,23.97C3381.279,2069.33,3379,1997.65,3378.779,1990.16z M3097,1935v-0.55
			c0-0.89-0.01-1.8-0.02-2.69c0.689,0.01,1.369,0.18,2.049,0.221c0.121,0.01,0.24,0.02,0.361,0.02H3100v3H3097z"/>
		<path style="fill:#E71D2F;" d="M3099.391,1932H3100v3h-3v-0.55c0-0.89-0.01-1.8-0.02-2.69c0.689,0.01,1.369,0.18,2.049,0.221
			C3099.15,1931.99,3099.27,1932,3099.391,1932z"/>
		<path style="fill:#E71D2F;" d="M3214.02,1931.529c-0.01,0.921-0.02,1.851-0.02,2.781V1935h-3v-3.46
			C3212.01,1931.54,3213.01,1931.54,3214.02,1931.529z"/>
	</g>
</g>
<polygon style="fill:#ED1F24;" points="879.41,545 882,545 882,547.68 "/>
<polygon style="fill:#ED1F24;" points="996,545 996,545.3 993,547.75 993,545 "/>
<path style="fill:#ED1F24;" d="M881.39,432H882v3h-3v-0.55l2.03-2.47C881.15,431.99,881.27,432,881.39,432z"/>
<polygon style="fill:#ED1F24;" points="996,434.31 996,435 993,435 993,434.13 "/>
</svg>
